<mxfile host="app.diagrams.net" modified="2021-03-23T11:34:38.929Z" agent="5.0 (Windows NT 10.0; Win64; x64) AppleWebKit/537.36 (KHTML, like Gecko) Chrome/89.0.4389.90 Safari/537.36" etag="9-12g1TkLI5dzGvRLXTM" version="14.3.2" type="github">
  <diagram id="lDC8brmdkuZfvEXuWP6e" name="Page-1">
    <mxGraphModel dx="288" dy="152" grid="1" gridSize="10" guides="1" tooltips="1" connect="1" arrows="1" fold="1" page="1" pageScale="1" pageWidth="850" pageHeight="1100" math="0" shadow="0">
      <root>
        <mxCell id="0" />
        <mxCell id="1" parent="0" />
        <mxCell id="OZZarm9-dKDbHQghJKH7-3" style="edgeStyle=orthogonalEdgeStyle;rounded=0;orthogonalLoop=1;jettySize=auto;html=1;exitX=0.25;exitY=0;exitDx=0;exitDy=0;" edge="1" parent="1" source="OZZarm9-dKDbHQghJKH7-1">
          <mxGeometry relative="1" as="geometry">
            <mxPoint x="110.05555555555554" y="260" as="targetPoint" />
          </mxGeometry>
        </mxCell>
        <mxCell id="OZZarm9-dKDbHQghJKH7-4" value="EXCESS" style="edgeLabel;html=1;align=center;verticalAlign=middle;resizable=0;points=[];" vertex="1" connectable="0" parent="OZZarm9-dKDbHQghJKH7-3">
          <mxGeometry x="-0.2659" relative="1" as="geometry">
            <mxPoint as="offset" />
          </mxGeometry>
        </mxCell>
        <mxCell id="OZZarm9-dKDbHQghJKH7-1" value="PROSUMER" style="rounded=1;whiteSpace=wrap;html=1;" vertex="1" parent="1">
          <mxGeometry x="80" y="300" width="120" height="60" as="geometry" />
        </mxCell>
        <mxCell id="OZZarm9-dKDbHQghJKH7-7" style="edgeStyle=orthogonalEdgeStyle;rounded=0;orthogonalLoop=1;jettySize=auto;html=1;entryX=0.75;entryY=0;entryDx=0;entryDy=0;" edge="1" parent="1" target="OZZarm9-dKDbHQghJKH7-1">
          <mxGeometry relative="1" as="geometry">
            <mxPoint x="170" y="260" as="sourcePoint" />
          </mxGeometry>
        </mxCell>
        <mxCell id="OZZarm9-dKDbHQghJKH7-8" value="DEFICIT" style="edgeLabel;html=1;align=center;verticalAlign=middle;resizable=0;points=[];" vertex="1" connectable="0" parent="OZZarm9-dKDbHQghJKH7-7">
          <mxGeometry x="-0.3426" relative="1" as="geometry">
            <mxPoint y="13.61" as="offset" />
          </mxGeometry>
        </mxCell>
      </root>
    </mxGraphModel>
  </diagram>
</mxfile>
